<svg width="51" height="50" viewBox="0 0 51 50" fill="none" xmlns="http://www.w3.org/2000/svg">
<circle cx="25.5" cy="25" r="25" fill="#6DA74B"/>
<path d="M13.75 25H25V26.875H13.75V25ZM11.875 20.3125H21.25V22.1875H11.875V20.3125Z" fill="#FAFFF7"/>
<path d="M38.0491 25.5681L35.2366 19.0056C35.1644 18.8369 35.0443 18.6932 34.8911 18.5922C34.7379 18.4912 34.5585 18.4374 34.375 18.4375H31.5625V16.5625C31.5625 16.3139 31.4637 16.0754 31.2879 15.8996C31.1121 15.7238 30.8737 15.625 30.625 15.625H15.625V17.5H29.6875V29.2712C29.2603 29.5193 28.8865 29.8495 28.5875 30.2427C28.2885 30.636 28.0704 31.0845 27.9456 31.5625H22.0544C21.8262 30.6788 21.2835 29.9086 20.5281 29.3963C19.7727 28.884 18.8564 28.6649 17.9509 28.7799C17.0455 28.8949 16.2131 29.3362 15.6097 30.021C15.0063 30.7059 14.6735 31.5873 14.6735 32.5C14.6735 33.4127 15.0063 34.2941 15.6097 34.979C16.2131 35.6638 17.0455 36.1051 17.9509 36.2201C18.8564 36.3351 19.7727 36.116 20.5281 35.6037C21.2835 35.0914 21.8262 34.3212 22.0544 33.4375H27.9456C28.1496 34.2421 28.616 34.9557 29.2711 35.4655C29.9261 35.9752 30.7325 36.252 31.5625 36.252C32.3926 36.252 33.1989 35.9752 33.854 35.4655C34.509 34.9557 34.9754 34.2421 35.1794 33.4375H37.1875C37.4362 33.4375 37.6746 33.3387 37.8504 33.1629C38.0262 32.9871 38.125 32.7486 38.125 32.5V25.9375C38.1251 25.8105 38.0992 25.6848 38.0491 25.5681ZM18.4375 34.375C18.0667 34.375 17.7042 34.265 17.3958 34.059C17.0875 33.853 16.8471 33.5601 16.7052 33.2175C16.5633 32.8749 16.5262 32.4979 16.5985 32.1342C16.6709 31.7705 16.8495 31.4364 17.1117 31.1742C17.3739 30.912 17.708 30.7334 18.0717 30.661C18.4354 30.5887 18.8124 30.6258 19.155 30.7677C19.4977 30.9096 19.7905 31.15 19.9965 31.4583C20.2025 31.7666 20.3125 32.1292 20.3125 32.5C20.312 32.9971 20.1143 33.4738 19.7628 33.8253C19.4113 34.1768 18.9346 34.3745 18.4375 34.375ZM31.5625 20.3125H33.7563L35.7663 25H31.5625V20.3125ZM31.5625 34.375C31.1917 34.375 30.8292 34.265 30.5208 34.059C30.2125 33.853 29.9722 33.5601 29.8302 33.2175C29.6883 32.8749 29.6512 32.4979 29.7235 32.1342C29.7959 31.7705 29.9745 31.4364 30.2367 31.1742C30.4989 30.912 30.833 30.7334 31.1967 30.661C31.5604 30.5887 31.9374 30.6258 32.28 30.7677C32.6227 30.9096 32.9155 31.15 33.1215 31.4583C33.3275 31.7666 33.4375 32.1292 33.4375 32.5C33.437 32.9971 33.2393 33.4738 32.8878 33.8253C32.5363 34.1768 32.0596 34.3745 31.5625 34.375ZM36.25 31.5625H35.1794C34.9729 30.7595 34.5057 30.0477 33.8512 29.5387C33.1966 29.0297 32.3917 28.7523 31.5625 28.75V26.875H36.25V31.5625Z" fill="#FAFFF7"/>
</svg>
