<svg width="21" height="21" viewBox="0 0 21 21" fill="none" xmlns="http://www.w3.org/2000/svg">
<path d="M16.3749 4.59166C15.6109 3.81993 14.7009 3.20805 13.698 2.7917C12.695 2.37536 11.6192 2.16288 10.5333 2.16666C5.98325 2.16666 2.27492 5.87499 2.27492 10.425C2.27492 11.8833 2.65825 13.3 3.37492 14.55L2.20825 18.8333L6.58325 17.6833C7.79159 18.3417 9.14992 18.6917 10.5333 18.6917C15.0833 18.6917 18.7916 14.9833 18.7916 10.4333C18.7916 8.22499 17.9333 6.14999 16.3749 4.59166ZM10.5333 17.2917C9.29992 17.2917 8.09159 16.9583 7.03325 16.3333L6.78325 16.1833L4.18325 16.8667L4.87492 14.3333L4.70825 14.075C4.02304 12.9808 3.6592 11.716 3.65825 10.425C3.65825 6.64166 6.74158 3.55833 10.5249 3.55833C12.3583 3.55833 14.0833 4.27499 15.3749 5.57499C16.0145 6.21163 16.5213 6.96888 16.8661 7.80285C17.2108 8.63682 17.3866 9.53092 17.3833 10.4333C17.3999 14.2167 14.3166 17.2917 10.5333 17.2917ZM14.2999 12.1583C14.0916 12.0583 13.0749 11.5583 12.8916 11.4833C12.6999 11.4167 12.5666 11.3833 12.4249 11.5833C12.2833 11.7917 11.8916 12.2583 11.7749 12.3917C11.6583 12.5333 11.5333 12.55 11.3249 12.4417C11.1166 12.3417 10.4499 12.1167 9.66658 11.4167C9.04992 10.8667 8.64158 10.1917 8.51658 9.98333C8.39992 9.77499 8.49992 9.66666 8.60825 9.55833C8.69992 9.46666 8.81659 9.31666 8.91659 9.19999C9.01659 9.08333 9.05825 8.99166 9.12492 8.85833C9.19159 8.71666 9.15825 8.59999 9.10825 8.49999C9.05825 8.39999 8.64158 7.38333 8.47492 6.96666C8.30825 6.56666 8.13325 6.61666 8.00825 6.60833H7.60825C7.46658 6.60833 7.24992 6.65833 7.05825 6.86666C6.87492 7.07499 6.34159 7.57499 6.34159 8.59166C6.34159 9.60833 7.08325 10.5917 7.18325 10.725C7.28325 10.8667 8.64158 12.95 10.7083 13.8417C11.1999 14.0583 11.5833 14.1833 11.8833 14.275C12.3749 14.4333 12.8249 14.4083 13.1833 14.3583C13.5833 14.3 14.4083 13.8583 14.5749 13.375C14.7499 12.8917 14.7499 12.4833 14.6916 12.3917C14.6333 12.3 14.5083 12.2583 14.2999 12.1583Z" fill="#333333"/>
</svg>
