<svg width="20" height="21" viewBox="0 0 20 21" fill="none" xmlns="http://www.w3.org/2000/svg">
<path d="M15.875 4.59168C15.111 3.81995 14.201 3.20807 13.1981 2.79172C12.1951 2.37537 11.1193 2.16289 10.0334 2.16668C5.48337 2.16668 1.77504 5.87501 1.77504 10.425C1.77504 11.8833 2.15837 13.3 2.87504 14.55L1.70837 18.8333L6.08337 17.6833C7.29171 18.3417 8.65004 18.6917 10.0334 18.6917C14.5834 18.6917 18.2917 14.9833 18.2917 10.4333C18.2917 8.22501 17.4334 6.15001 15.875 4.59168ZM10.0334 17.2917C8.80004 17.2917 7.59171 16.9583 6.53337 16.3333L6.28337 16.1833L3.68337 16.8667L4.37504 14.3333L4.20837 14.075C3.52316 12.9808 3.15932 11.716 3.15837 10.425C3.15837 6.64168 6.24171 3.55834 10.025 3.55834C11.8584 3.55834 13.5834 4.27501 14.875 5.57501C15.5146 6.21165 16.0215 6.96889 16.3662 7.80286C16.7109 8.63683 16.8867 9.53093 16.8834 10.4333C16.9 14.2167 13.8167 17.2917 10.0334 17.2917ZM13.8 12.1583C13.5917 12.0583 12.575 11.5583 12.3917 11.4833C12.2 11.4167 12.0667 11.3833 11.925 11.5833C11.7834 11.7917 11.3917 12.2583 11.275 12.3917C11.1584 12.5333 11.0334 12.55 10.825 12.4417C10.6167 12.3417 9.95004 12.1167 9.16671 11.4167C8.55004 10.8667 8.14171 10.1917 8.01671 9.98334C7.90004 9.77501 8.00004 9.66667 8.10837 9.55834C8.20004 9.46667 8.31671 9.31667 8.41671 9.20001C8.51671 9.08334 8.55837 8.99167 8.62504 8.85834C8.69171 8.71667 8.65837 8.60001 8.60837 8.50001C8.55837 8.40001 8.14171 7.38334 7.97504 6.96668C7.80837 6.56668 7.63337 6.61668 7.50837 6.60834H7.10837C6.96671 6.60834 6.75004 6.65834 6.55837 6.86668C6.37504 7.07501 5.84171 7.57501 5.84171 8.59168C5.84171 9.60834 6.58337 10.5917 6.68337 10.725C6.78337 10.8667 8.14171 12.95 10.2084 13.8417C10.7 14.0583 11.0834 14.1833 11.3834 14.275C11.875 14.4333 12.325 14.4083 12.6834 14.3583C13.0834 14.3 13.9084 13.8583 14.075 13.375C14.25 12.8917 14.25 12.4833 14.1917 12.3917C14.1334 12.3 14.0084 12.2583 13.8 12.1583Z" fill="#FAFFF7"/>
</svg>
