<svg width="21" height="21" viewBox="0 0 21 21" fill="none" xmlns="http://www.w3.org/2000/svg">
<path d="M3 4.66667V4.04167C2.83424 4.04167 2.67527 4.10752 2.55806 4.22473C2.44085 4.34194 2.375 4.50091 2.375 4.66667H3ZM18 4.66667H18.625C18.625 4.50091 18.5592 4.34194 18.4419 4.22473C18.3247 4.10752 18.1658 4.04167 18 4.04167V4.66667ZM3 5.29167H18V4.04167H3V5.29167ZM17.375 4.66667V14.6667H18.625V4.66667H17.375ZM16.3333 15.7083H4.66667V16.9583H16.3333V15.7083ZM3.625 14.6667V4.66667H2.375V14.6667H3.625ZM4.66667 15.7083C4.09167 15.7083 3.625 15.2417 3.625 14.6667H2.375C2.375 15.2745 2.61644 15.8574 3.04621 16.2871C3.47598 16.7169 4.05888 16.9583 4.66667 16.9583V15.7083ZM17.375 14.6667C17.375 15.2417 16.9083 15.7083 16.3333 15.7083V16.9583C16.9411 16.9583 17.524 16.7169 17.9538 16.2871C18.3836 15.8574 18.625 15.2745 18.625 14.6667H17.375Z" fill="#333333"/>
<path d="M3 4.66667L10.5 12.1667L18 4.66667" stroke="#333333" stroke-width="1.25" stroke-linecap="round" stroke-linejoin="round"/>
</svg>
