<svg width="20" height="20" viewBox="0 0 20 20" fill="none" xmlns="http://www.w3.org/2000/svg">
<path d="M2.5 4.16663V3.54163C2.33424 3.54163 2.17527 3.60747 2.05806 3.72468C1.94085 3.84189 1.875 4.00087 1.875 4.16663H2.5ZM17.5 4.16663H18.125C18.125 4.00087 18.0592 3.84189 17.9419 3.72468C17.8247 3.60747 17.6658 3.54163 17.5 3.54163V4.16663ZM2.5 4.79163H17.5V3.54163H2.5V4.79163ZM16.875 4.16663V14.1666H18.125V4.16663H16.875ZM15.8333 15.2083H4.16667V16.4583H15.8333V15.2083ZM3.125 14.1666V4.16663H1.875V14.1666H3.125ZM4.16667 15.2083C3.59167 15.2083 3.125 14.7416 3.125 14.1666H1.875C1.875 14.7744 2.11644 15.3573 2.54621 15.7871C2.97598 16.2169 3.55888 16.4583 4.16667 16.4583V15.2083ZM16.875 14.1666C16.875 14.7416 16.4083 15.2083 15.8333 15.2083V16.4583C16.4411 16.4583 17.024 16.2169 17.4538 15.7871C17.8836 15.3573 18.125 14.7744 18.125 14.1666H16.875Z" fill="white"/>
<path d="M2.5 4.16663L10 11.6666L17.5 4.16663" stroke="white" stroke-width="1.125" stroke-linecap="round" stroke-linejoin="round"/>
</svg>
