<svg width="692" height="759" viewBox="0 0 692 759" fill="none" xmlns="http://www.w3.org/2000/svg">
<mask id="mask0_38_164" style="mask-type:luminance" maskUnits="userSpaceOnUse" x="148" y="73" width="491" height="562">
<path d="M159.695 480.447C174.756 547.745 216.822 593.032 285.893 616.308C354.964 639.584 424.685 640.216 495.055 618.205C565.424 596.194 609.697 550.907 627.874 482.344C646.051 413.781 639.819 351.29 609.178 294.871C578.537 238.452 534.264 180.768 476.359 121.819C418.453 62.8705 354.964 57.431 285.893 105.501C216.822 153.571 174.756 211.255 159.695 278.553C144.634 345.851 144.634 413.149 159.695 480.447Z" fill="white"/>
</mask>
<g mask="url(#mask0_38_164)">
<path d="M59.9039 434.567C75.7758 496.451 120.108 538.095 192.9 559.499C265.691 580.903 339.167 581.484 413.328 561.244C487.488 541.003 534.146 499.359 553.301 436.312C572.457 373.264 565.889 315.8 533.598 263.919C501.307 212.039 454.649 158.995 393.624 104.788C332.6 50.5811 265.691 45.5791 192.9 89.7823C120.108 133.985 75.7758 187.029 59.9039 248.914C44.032 310.798 44.032 372.682 59.9039 434.567Z" fill="#E9F4EA"/>
</g>
</svg>
