<svg width="51" height="50" viewBox="0 0 51 50" fill="none" xmlns="http://www.w3.org/2000/svg">
<circle cx="25.5" cy="25" r="25" fill="#6DA74B"/>
<path d="M37.0156 14.6875C37.0156 14.874 36.9415 15.0528 36.8097 15.1847C36.6778 15.3165 36.499 15.3906 36.3125 15.3906H15.6875C15.501 15.3906 15.3222 15.3165 15.1903 15.1847C15.0585 15.0528 14.9844 14.874 14.9844 14.6875C14.9844 14.501 15.0585 14.3222 15.1903 14.1903C15.3222 14.0585 15.501 13.9844 15.6875 13.9844H36.3125C36.499 13.9844 36.6778 14.0585 36.8097 14.1903C36.9415 14.3222 37.0156 14.501 37.0156 14.6875ZM35.1406 19.375V30.625C35.1406 31.0601 34.9678 31.4774 34.6601 31.7851C34.3524 32.0928 33.9351 32.2656 33.5 32.2656H28.8125C28.3774 32.2656 27.9601 32.0928 27.6524 31.7851C27.3447 31.4774 27.1719 31.0601 27.1719 30.625V19.375C27.1719 18.9399 27.3447 18.5226 27.6524 18.2149C27.9601 17.9072 28.3774 17.7344 28.8125 17.7344H33.5C33.9351 17.7344 34.3524 17.9072 34.6601 18.2149C34.9678 18.5226 35.1406 18.9399 35.1406 19.375ZM33.7344 19.375C33.7344 19.3128 33.7097 19.2532 33.6657 19.2093C33.6218 19.1653 33.5622 19.1406 33.5 19.1406H28.8125C28.7503 19.1406 28.6907 19.1653 28.6468 19.2093C28.6028 19.2532 28.5781 19.3128 28.5781 19.375V30.625C28.5781 30.6872 28.6028 30.7468 28.6468 30.7907C28.6907 30.8347 28.7503 30.8594 28.8125 30.8594H33.5C33.5622 30.8594 33.6218 30.8347 33.6657 30.7907C33.7097 30.7468 33.7344 30.6872 33.7344 30.625V19.375ZM24.8281 19.375V35.3125C24.8281 35.528 24.7857 35.7413 24.7032 35.9403C24.6208 36.1394 24.4999 36.3202 24.3476 36.4726C24.1953 36.6249 24.0144 36.7458 23.8153 36.8282C23.6163 36.9107 23.403 36.9531 23.1875 36.9531H18.5C18.0649 36.9531 17.6476 36.7803 17.3399 36.4726C17.0322 36.1649 16.8594 35.7476 16.8594 35.3125V19.375C16.8594 18.9399 17.0322 18.5226 17.3399 18.2149C17.6476 17.9072 18.0649 17.7344 18.5 17.7344H23.1875C23.403 17.7344 23.6163 17.7768 23.8153 17.8593C24.0144 17.9417 24.1953 18.0626 24.3476 18.2149C24.4999 18.3672 24.6208 18.5481 24.7032 18.7472C24.7857 18.9462 24.8281 19.1596 24.8281 19.375ZM23.4219 19.375C23.4219 19.3128 23.3972 19.2532 23.3532 19.2093C23.3093 19.1653 23.2497 19.1406 23.1875 19.1406H18.5C18.4378 19.1406 18.3782 19.1653 18.3343 19.2093C18.2903 19.2532 18.2656 19.3128 18.2656 19.375V35.3125C18.2656 35.3747 18.2903 35.4343 18.3343 35.4782C18.3782 35.5222 18.4378 35.5469 18.5 35.5469H23.1875C23.2497 35.5469 23.3093 35.5222 23.3532 35.4782C23.3972 35.4343 23.4219 35.3747 23.4219 35.3125V19.375Z" fill="white"/>
</svg>
